<mxfile host="app.diagrams.net" modified="2022-05-04T07:57:24.133Z" agent="5.0 (Windows NT 10.0; Win64; x64) AppleWebKit/537.36 (KHTML, like Gecko) Chrome/101.0.4951.41 Safari/537.36 Edg/101.0.1210.32" etag="mygCZMsMCtmroOUL6F_r" version="17.5.0" type="github">
  <diagram id="Lyc2Uq_zRr3TkiPK22ZA" name="Page-1">
    <mxGraphModel dx="1038" dy="579" grid="1" gridSize="10" guides="1" tooltips="1" connect="1" arrows="1" fold="1" page="1" pageScale="1" pageWidth="850" pageHeight="1100" math="0" shadow="0">
      <root>
        <mxCell id="0" />
        <mxCell id="1" parent="0" />
        <mxCell id="ymO20f5X4ummc9ukHz0G-1" value="" style="edgeStyle=orthogonalEdgeStyle;rounded=0;orthogonalLoop=1;jettySize=auto;html=1;" edge="1" parent="1" source="ymO20f5X4ummc9ukHz0G-2" target="ymO20f5X4ummc9ukHz0G-4">
          <mxGeometry relative="1" as="geometry" />
        </mxCell>
        <mxCell id="ymO20f5X4ummc9ukHz0G-2" value="start" style="rounded=1;whiteSpace=wrap;html=1;" vertex="1" parent="1">
          <mxGeometry x="80" y="30" width="90" height="20" as="geometry" />
        </mxCell>
        <mxCell id="ymO20f5X4ummc9ukHz0G-3" value="" style="edgeStyle=orthogonalEdgeStyle;rounded=0;orthogonalLoop=1;jettySize=auto;html=1;" edge="1" parent="1" source="ymO20f5X4ummc9ukHz0G-4" target="ymO20f5X4ummc9ukHz0G-6">
          <mxGeometry relative="1" as="geometry" />
        </mxCell>
        <mxCell id="ymO20f5X4ummc9ukHz0G-4" value="get the truck id and npc appear point" style="rounded=0;whiteSpace=wrap;html=1;" vertex="1" parent="1">
          <mxGeometry x="65" y="90" width="120" height="60" as="geometry" />
        </mxCell>
        <mxCell id="ymO20f5X4ummc9ukHz0G-5" value="" style="edgeStyle=orthogonalEdgeStyle;rounded=0;orthogonalLoop=1;jettySize=auto;html=1;" edge="1" parent="1" source="ymO20f5X4ummc9ukHz0G-6" target="ymO20f5X4ummc9ukHz0G-8">
          <mxGeometry relative="1" as="geometry" />
        </mxCell>
        <mxCell id="ymO20f5X4ummc9ukHz0G-6" value="construct the stock man trigger object" style="whiteSpace=wrap;html=1;rounded=0;" vertex="1" parent="1">
          <mxGeometry x="65" y="210" width="120" height="60" as="geometry" />
        </mxCell>
        <mxCell id="ymO20f5X4ummc9ukHz0G-7" value="" style="edgeStyle=orthogonalEdgeStyle;rounded=0;orthogonalLoop=1;jettySize=auto;html=1;" edge="1" parent="1" source="ymO20f5X4ummc9ukHz0G-8" target="ymO20f5X4ummc9ukHz0G-9">
          <mxGeometry relative="1" as="geometry" />
        </mxCell>
        <mxCell id="ymO20f5X4ummc9ukHz0G-8" value="call&amp;nbsp;createSupplyTruck" style="rounded=1;whiteSpace=wrap;html=1;fillColor=#f8cecc;gradientColor=#ea6b66;strokeColor=#b85450;" vertex="1" parent="1">
          <mxGeometry x="65" y="300" width="120" height="60" as="geometry" />
        </mxCell>
        <mxCell id="ymO20f5X4ummc9ukHz0G-9" value="end" style="ellipse;whiteSpace=wrap;html=1;" vertex="1" parent="1">
          <mxGeometry x="82.5" y="400" width="85" height="40" as="geometry" />
        </mxCell>
      </root>
    </mxGraphModel>
  </diagram>
</mxfile>
